<?xml version="1.0" standalone="no"?>
<svg viewBox="0 0 200 200" xmlns="http://www.w3.org/2000/svg">
  <path fill="#006A94" d="M18.7,-24.1C28.6,-26.8,43.8,-30.4,48.8,-26.6C53.8,-22.7,48.6,-11.4,51.6,1.7C54.6,14.8,65.8,29.7,64.3,39.6C62.8,49.5,48.6,54.5,35.7,56.5C22.9,58.5,11.4,57.6,-1.4,60.1C-14.3,62.6,-28.7,68.6,-40.3,65.9C-52,63.1,-61,51.8,-65.5,39.3C-70,26.9,-69.9,13.5,-67.9,1.2C-65.9,-11.1,-61.8,-22.2,-54.2,-29.2C-46.6,-36.2,-35.4,-39.1,-25.8,-36.6C-16.2,-34,-8.1,-26,-1.8,-22.8C4.5,-19.7,8.9,-21.4,18.7,-24.1Z" transform="translate(100 100)" />
</svg>
